# xmcd CD database file
#
# Track frame offsets:
#	183
#	13530
#	22790
#	33870
#	47038
#	59055
#	71538
#	82910
#	96443
#	111265
#	125435
#	136620
#	150748
#	161135
#	169978
#	187680
#	202813
#	217565
#
# Disc length: 3063 seconds
#
# Revision: 0
# Processed by: cddbd v1.5.2PL0 Copyright (c) Steve Scherf et al.
# Submitted via: CDex 1.70beta2
#
DISCID=df0bf512
DTITLE=Django  Reinhardt - Django CD 2
DYEAR=1991
DGENRE=Jazz
TTITLE0=Swing guitars
TTITLE1=Babik
TTITLE2=This kind of friend
TTITLE3=Viper's dream
TTITLE4=Blues clair
TTITLE5=Minor swing
TTITLE6=Swing 39
TTITLE7=Swing 41
TTITLE8=Del salle
TTITLE9=Les yeux noirs
TTITLE10=Louise
TTITLE11=Swingtime in springtime
TTITLE12=Féerie
TTITLE13=Vendredi 13
TTITLE14=Crépuscule
TTITLE15=Songe d'automne
TTITLE16=Just one of those things
TTITLE17=Billets doux
EXTD=YEAR: 1991
EXTT0=
EXTT1=
EXTT2=
EXTT3=
EXTT4=
EXTT5=
EXTT6=
EXTT7=
EXTT8=
EXTT9=
EXTT10=
EXTT11=
EXTT12=
EXTT13=
EXTT14=
EXTT15=
EXTT16=
EXTT17=
PLAYORDER=
